<svg width="130" height="37" viewBox="0 0 130 37" fill="none" xmlns="http://www.w3.org/2000/svg">
<path d="M29.7031 28.1211C30.0696 28.1211 30.3956 28.2532 30.6807 28.5176C30.9759 28.7922 31.123 29.1133 31.123 29.4795C31.1229 29.7134 30.9802 30.0383 30.6953 30.4551C29.2802 32.4689 27.0003 34.0971 23.8545 35.3379C21.0242 36.4465 18.2288 37 15.4697 37C7.80392 36.9999 2.76447 34.8443 0.351562 30.5322C0.117401 30.1152 -1.33374e-08 29.7534 0 29.4482C0.000101261 29.1026 0.127446 28.7975 0.381836 28.5332C0.626178 28.2688 0.916959 28.1367 1.25293 28.1367C1.71093 28.1369 2.17441 28.4318 2.64258 29.0215C3.00904 29.4893 3.37572 29.9625 3.74219 30.4404C6.15508 32.7795 9.94745 33.9492 15.1191 33.9492C17.1247 33.9492 19.1663 33.6697 21.2432 33.1104C23.6253 32.4594 25.4575 31.5738 26.7402 30.4551C27.2085 29.9873 27.6772 29.525 28.1455 29.0674C28.8276 28.4368 29.3468 28.1211 29.7031 28.1211ZM51.9365 9.18457C53.3627 9.25963 54.7393 9.55954 56.0654 10.085C57.4164 10.6104 58.5175 11.3985 59.3682 12.4492C59.7434 13.0497 60.0061 13.7381 60.1562 14.5137C60.3314 15.2643 60.3817 16.028 60.3066 16.8037C60.2316 17.5793 60.0313 18.3301 59.7061 19.0557C59.4058 19.7562 58.9801 20.357 58.4297 20.8574C58.1798 21.1325 58.092 21.4327 58.167 21.7578C58.2421 22.0581 58.4302 22.3207 58.7305 22.5459C59.8563 23.2964 60.6191 24.2598 61.0195 25.4355C61.4199 26.5866 61.5205 27.7759 61.3203 29.002C61.1451 30.2279 60.6943 31.3792 59.9688 32.4551C59.2432 33.5308 58.3172 34.3562 57.1914 34.9316C56.3657 35.2319 55.5275 35.4321 54.6768 35.5322C53.8511 35.6073 53.0128 35.6445 52.1621 35.6445C51.3365 35.6445 50.4859 35.6203 49.6104 35.5703C48.7596 35.5203 47.8832 35.5203 46.9824 35.5703H40.9775C40.6273 35.5703 40.3394 35.4323 40.1143 35.1572C39.9141 34.882 39.8135 34.556 39.8135 34.1807C39.7634 32.9298 39.7393 31.7289 39.7393 30.5781C39.7643 29.4271 39.7885 28.276 39.8135 27.125C39.8385 25.974 39.8516 24.8229 39.8516 23.6719C39.8766 22.4959 39.8635 21.2823 39.8135 20.0312C39.8135 19.4307 39.8014 18.9679 39.7764 18.6426C39.7514 18.2924 39.7262 17.9672 39.7012 17.667C39.7012 17.3668 39.6891 17.0537 39.6641 16.7285C39.639 16.3782 39.626 15.9023 39.626 15.3018C39.701 14.8515 39.6889 14.2886 39.5889 13.6133C39.5138 12.9377 39.4756 12.2867 39.4756 11.6611C39.4756 11.0357 39.5641 10.5103 39.7393 10.085C39.9395 9.63477 40.3521 9.43434 40.9775 9.48438C42.0034 9.43433 42.9544 9.39709 43.8301 9.37207C44.7307 9.32203 45.6064 9.28479 46.457 9.25977C47.3078 9.23474 48.1711 9.22168 49.0469 9.22168C49.9475 9.19666 50.9108 9.18457 51.9365 9.18457ZM124.179 9.18457C124.779 9.18457 125.242 9.19668 125.567 9.22168C125.918 9.22168 126.244 9.23474 126.544 9.25977C126.844 9.28478 127.157 9.30897 127.482 9.33398H128.908C129.258 9.33399 129.459 9.38437 129.509 9.48438C129.584 9.58446 129.496 9.77261 129.246 10.0479C128.521 10.8234 127.857 11.5612 127.257 12.2617C126.656 12.9623 126.069 13.6636 125.493 14.3643C124.918 15.0398 124.342 15.7402 123.767 16.4658C123.191 17.1915 122.577 17.9672 121.927 18.793C121.677 19.0931 121.514 19.4184 121.439 19.7686C121.364 20.1189 121.427 20.4569 121.627 20.7822C122.202 21.5828 122.728 22.3458 123.203 23.0713C123.678 23.7718 124.141 24.4724 124.592 25.1729C125.042 25.8734 125.48 26.5869 125.905 27.3125C126.331 28.0381 126.781 28.8391 127.257 29.7148C127.607 30.2651 127.87 30.7152 128.045 31.0654C128.22 31.4156 128.37 31.7539 128.495 32.0791C128.62 32.3792 128.77 32.7046 128.945 33.0547C129.12 33.38 129.384 33.8307 129.734 34.4062C129.934 34.7063 129.997 34.9692 129.922 35.1943C129.872 35.4195 129.671 35.5322 129.321 35.5322H128.12C127.845 35.5572 127.582 35.5703 127.332 35.5703C127.107 35.5953 126.856 35.6074 126.581 35.6074C126.306 35.6324 125.918 35.6445 125.418 35.6445C124.918 35.6445 124.517 35.4824 124.217 35.1572C123.917 34.8319 123.666 34.519 123.466 34.2188C123.015 33.3931 122.578 32.6424 122.152 31.9668C121.752 31.2662 121.352 30.59 120.951 29.9395C120.551 29.264 120.125 28.5885 119.675 27.9131C119.249 27.2376 118.787 26.5119 118.286 25.7363C118.136 25.5112 117.936 25.3481 117.686 25.248C117.461 25.1231 117.211 25.0606 116.936 25.0605C116.46 25.0605 116.072 25.2235 115.771 25.5488C115.296 26.2493 115.008 26.9378 114.908 27.6133C114.808 28.2886 114.783 28.9764 114.833 29.6768C114.908 30.3523 114.996 31.0537 115.096 31.7793C115.196 32.5048 115.209 33.2678 115.134 34.0684C115.034 34.6188 114.833 34.9941 114.533 35.1943C114.233 35.3945 113.87 35.5072 113.444 35.5322C113.044 35.5822 112.606 35.5823 112.131 35.5322C111.681 35.4822 111.255 35.4822 110.854 35.5322C110.504 35.5321 110.179 35.3822 109.879 35.082C109.604 34.7818 109.466 34.4437 109.466 34.0684C109.466 33.4679 109.454 33.0049 109.429 32.6797C109.429 32.3295 109.417 32.0043 109.392 31.7041C109.367 31.4038 109.341 31.0909 109.316 30.7656V27.9512C109.341 27.6009 109.367 27.2749 109.392 26.9746C109.417 26.6744 109.429 26.3613 109.429 26.0361C109.454 25.6859 109.466 25.2106 109.466 24.6104C109.466 24.0348 109.442 23.5841 109.392 23.2588C109.367 22.9086 109.328 22.5834 109.278 22.2832C109.253 21.983 109.216 21.67 109.166 21.3447C109.141 20.9945 109.128 20.5192 109.128 19.9189C109.203 19.0434 109.253 18.23 109.278 17.4795C109.328 16.7038 109.367 15.9401 109.392 15.1895C109.417 14.4388 109.429 13.6881 109.429 12.9375C109.429 12.1618 109.404 11.3357 109.354 10.46C109.379 10.0098 109.542 9.70965 109.842 9.55957C110.167 9.40953 110.555 9.3219 111.005 9.29688C111.455 9.24684 111.918 9.24685 112.394 9.29688C112.869 9.3219 113.269 9.29674 113.595 9.22168C113.945 9.22168 114.221 9.34654 114.421 9.59668C114.621 9.82178 114.721 10.1099 114.721 10.46C114.721 11.0855 114.746 11.5866 114.796 11.9619C114.846 12.3122 114.896 12.6504 114.946 12.9756C114.996 13.2756 115.046 13.6133 115.096 13.9883C115.146 14.3386 115.171 14.8267 115.171 15.4521C115.171 16.1027 115.409 16.4277 115.885 16.4277C116.01 16.4277 116.135 16.4035 116.26 16.3535C116.385 16.2785 116.51 16.1656 116.635 16.0156C116.96 15.6405 117.223 15.3525 117.423 15.1523C117.648 14.9522 117.861 14.7771 118.062 14.627C118.262 14.4768 118.462 14.3017 118.662 14.1016C118.887 13.9014 119.162 13.6135 119.487 13.2383C119.913 12.863 120.276 12.4625 120.576 12.0371C120.901 11.5867 121.226 11.1732 121.552 10.7979C121.877 10.3976 122.24 10.0603 122.641 9.78516C123.066 9.48501 123.578 9.28467 124.179 9.18457ZM104.967 8.99707C105.295 8.99707 105.557 9.12211 105.751 9.37109L105.909 9.59961C106.081 9.86766 106.168 10.1546 106.168 10.4609C106.168 11.0615 106.181 11.5374 106.206 11.8877C106.256 12.2129 106.305 12.526 106.355 12.8262C106.405 13.1264 106.444 13.4515 106.469 13.8018C106.519 14.127 106.543 14.59 106.543 15.1904C106.543 15.791 106.531 16.2669 106.506 16.6172C106.481 16.9422 106.456 17.2547 106.431 17.5547C106.406 17.855 106.38 18.1809 106.355 18.5312C106.33 18.8565 106.318 19.3196 106.318 19.9199C106.343 20.7955 106.355 21.621 106.355 22.3965V24.6484C106.355 25.374 106.343 26.1248 106.318 26.9004C106.318 27.6509 106.305 28.4643 106.28 29.3398C106.28 29.9404 106.268 30.4163 106.243 30.7666V31.7051C106.243 32.0053 106.231 32.3305 106.206 32.6807V34.0693C106.206 34.4445 106.093 34.7698 105.868 35.0449C105.643 35.3202 105.342 35.458 104.967 35.458C104.567 35.458 104.241 35.4711 103.991 35.4961C103.766 35.4961 103.554 35.5082 103.354 35.5332C103.153 35.5582 102.928 35.5703 102.678 35.5703C102.453 35.5953 102.127 35.6084 101.702 35.6084C101.027 35.4833 100.475 35.2327 100.05 34.8574C99.6496 34.4822 99.2992 34.0442 98.999 33.5439C98.6988 33.0436 98.411 32.5182 98.1357 31.9678C97.8855 31.4173 97.5605 30.9041 97.1602 30.4287C96.2844 28.9525 95.4713 27.4762 94.7207 26C93.9951 24.5237 93.1438 23.0727 92.168 21.6465C91.8677 21.1961 91.4803 20.9707 91.0049 20.9707C90.6546 20.9707 90.3547 21.0834 90.1045 21.3086C89.8543 21.5338 89.7285 21.8467 89.7285 22.2471V25.4746C89.7535 25.95 89.7666 26.4381 89.7666 26.9385V28.7021C89.7166 29.0274 89.7035 29.4279 89.7285 29.9033C89.7786 30.3537 89.8289 30.8417 89.8789 31.3672C89.954 31.8676 90.0043 32.3808 90.0293 32.9062C90.0543 33.4064 90.0291 33.8566 89.9541 34.2568C89.9041 34.6321 89.7662 34.9451 89.541 35.1953C89.3158 35.4455 88.9777 35.5582 88.5273 35.5332H87.627C87.4268 35.5582 87.2386 35.5703 87.0635 35.5703H86.4639C86.2638 35.5953 85.9757 35.6084 85.6006 35.6084C84.95 35.4583 84.5244 35.1453 84.3242 34.6699C84.1491 34.1945 84.0736 33.6441 84.0986 33.0186C84.1487 32.393 84.2241 31.755 84.3242 31.1045C84.4243 30.4289 84.4364 29.8403 84.3613 29.3398C84.4114 28.089 84.4365 26.8881 84.4365 25.7373C84.4365 24.5613 84.4244 23.4102 84.3994 22.2842C84.3744 21.1333 84.3362 19.9699 84.2861 18.7939C84.2611 17.6179 84.2369 16.4165 84.2119 15.1904C84.287 14.715 84.2739 14.1394 84.1738 13.4639C84.0738 12.7883 84.0113 12.1503 83.9863 11.5498C83.9863 10.9244 84.0861 10.3989 84.2861 9.97363C84.4863 9.52324 84.925 9.28576 85.6006 9.26074C86.0257 9.33572 86.5134 9.35994 87.0635 9.33496C87.614 9.30994 88.1653 9.30994 88.7158 9.33496C89.266 9.36 89.7787 9.43552 90.2539 9.56055C90.7293 9.66063 91.1177 9.873 91.418 10.1982C92.4939 12.3751 93.5817 14.5275 94.6826 16.6543C95.8086 18.7811 97.0473 20.858 98.3984 22.8848C98.6987 23.3352 99.0871 23.5605 99.5625 23.5605C99.8627 23.5605 100.125 23.4599 100.351 23.2598C100.601 23.0346 100.726 22.7095 100.726 22.2842C100.651 20.2825 100.588 18.3183 100.538 16.3916C100.488 14.4649 100.488 12.4877 100.538 10.4609C100.538 10.1109 100.651 9.79851 100.876 9.52344C101.101 9.24827 101.489 9.11042 102.039 9.11035H102.902C103.127 9.08535 103.328 9.07228 103.503 9.07227C103.678 9.04724 103.866 9.03516 104.066 9.03516C104.292 9.01015 104.592 8.99708 104.967 8.99707ZM67.1807 8.88477C67.631 8.93481 67.9309 9.1975 68.0811 9.67285C68.2312 10.1482 68.3066 10.711 68.3066 11.3613C68.3066 11.9869 68.2815 12.6258 68.2314 13.2764C68.1814 13.9267 68.1945 14.4523 68.2695 14.8525C68.3446 15.6781 68.3939 16.4411 68.4189 17.1416C68.469 17.8422 68.4941 18.5305 68.4941 19.2061C68.4941 19.8816 68.4821 20.5699 68.457 21.2705C68.432 21.971 68.3948 22.734 68.3447 23.5596C68.4198 24.1351 68.4198 24.7861 68.3447 25.5117C68.2947 26.2123 68.2947 26.8754 68.3447 27.501C68.3948 28.1265 68.5699 28.6649 68.8701 29.1152C69.1955 29.5403 69.7834 29.7781 70.6338 29.8281C71.5095 29.8782 72.3105 29.9154 73.0361 29.9404H77.3525C78.0781 29.9154 78.8662 29.8782 79.7168 29.8281C80.1921 29.9032 80.5303 30.1035 80.7305 30.4287C80.9305 30.7288 81.0554 31.0915 81.1055 31.5166C81.1805 31.942 81.2057 32.3927 81.1807 32.8682C81.1807 33.3185 81.2058 33.7191 81.2559 34.0693C81.2558 34.4446 81.0928 34.7325 80.7676 34.9326C80.4424 35.1327 80.092 35.2324 79.7168 35.2324C78.791 35.2825 77.9277 35.3207 77.127 35.3457C76.3264 35.3707 75.5383 35.3828 74.7627 35.3828C73.912 35.3828 73.0607 35.3707 72.21 35.3457C71.3594 35.2957 70.4212 35.2453 69.3955 35.1953C68.3196 35.2454 67.418 35.3077 66.6924 35.3828C65.9671 35.4578 65.3669 35.4951 64.8916 35.4951C64.3411 35.4951 63.9276 35.4206 63.6523 35.2705C63.4022 35.1204 63.2401 34.8195 63.165 34.3691C63.09 33.9188 63.0648 33.2936 63.0898 32.4932C63.1149 31.6925 63.14 30.641 63.165 29.3398C63.0149 28.089 62.9143 26.8881 62.8643 25.7373C62.8142 24.5864 62.8021 23.4351 62.8271 22.2842C62.8522 21.1333 62.8894 19.982 62.9395 18.8311C62.9895 17.6551 63.0267 16.4414 63.0518 15.1904C63.1268 14.74 63.1268 14.1766 63.0518 13.501C62.9767 12.8256 62.9274 12.1752 62.9023 11.5498C62.9023 10.8992 62.9768 10.3358 63.127 9.86035C63.3021 9.36 63.6776 9.07218 64.2529 8.99707H65.1162C65.3413 8.97206 65.5417 8.95997 65.7168 8.95996C65.8919 8.93494 66.0801 8.92188 66.2803 8.92188C66.5054 8.89688 66.8056 8.88477 67.1807 8.88477ZM46.8701 24.7227C46.4199 24.7227 46.0695 24.8979 45.8193 25.248C45.5941 25.5733 45.4814 25.9617 45.4814 26.4121C45.4314 26.7874 45.3811 27.2001 45.3311 27.6504C45.281 28.0756 45.2811 28.4884 45.3311 28.8887C45.3811 29.264 45.5189 29.6021 45.7441 29.9023C45.9693 30.1776 46.3447 30.3406 46.8701 30.3906C47.5707 30.3906 48.1212 30.3776 48.5215 30.3525C48.9467 30.3275 49.3344 30.3024 49.6846 30.2773C50.0347 30.2523 50.4104 30.2281 50.8105 30.2031C51.2108 30.1781 51.7615 30.165 52.4619 30.165C53.1374 30.2151 53.701 30.1154 54.1514 29.8652C54.6018 29.615 54.9398 29.289 55.165 28.8887C55.3901 28.4634 55.5029 28.0003 55.5029 27.5C55.5029 26.9998 55.3901 26.5496 55.165 26.1494C54.9398 25.724 54.6018 25.386 54.1514 25.1357C53.701 24.8855 53.1375 24.798 52.4619 24.873H50.8105C50.4103 24.848 50.0348 24.8229 49.6846 24.7979C49.3344 24.7728 48.9467 24.7607 48.5215 24.7607C48.1212 24.7357 47.5707 24.7227 46.8701 24.7227ZM5.94336 14.416C6.32755 14.4161 6.67578 14.5932 6.9873 14.9463C9.35547 17.5949 11.5003 19.4179 13.4219 20.415C14.0344 20.7266 14.3406 21.1263 14.3408 21.6143C14.3408 21.9881 14.1489 22.3572 13.7646 22.7207C11.2926 25.0162 8.70121 27.032 5.99023 28.7666C5.69943 28.9535 5.42372 29.0469 5.16406 29.0469C4.79016 29.0469 4.46305 28.9011 4.18262 28.6104C3.91255 28.3091 3.77734 27.9716 3.77734 27.5977C3.77735 27.1822 3.97969 26.8184 4.38477 26.5068L10.4307 21.8955C9.50628 21.2827 8.3635 20.3423 7.00293 19.0752C5.34099 17.5067 4.50977 16.4208 4.50977 15.8184C4.50984 15.4445 4.65553 15.1173 4.94629 14.8369C5.23705 14.5567 5.56956 14.416 5.94336 14.416ZM26.4707 15.4131C26.8446 15.4131 27.1727 15.5588 27.4531 15.8496C27.7438 16.13 27.8887 16.4625 27.8887 16.8467C27.8887 17.1998 27.7333 17.5322 27.4219 17.8438C26.4247 18.9032 24.8713 20.4148 22.7627 22.3779C23.3444 22.8038 24.0614 23.4632 24.9131 24.3564C25.9206 25.4055 26.6114 26.0911 26.9854 26.4131C27.3593 26.7351 27.5459 27.0884 27.5459 27.4727C27.5459 27.8569 27.4062 28.1946 27.126 28.4854C26.8455 28.7762 26.5175 28.9219 26.1436 28.9219C25.8529 28.9218 25.5621 28.8127 25.2715 28.5947C24.856 28.2935 23.9681 27.4308 22.6074 26.0078C21.5687 24.9172 20.5656 24.1855 19.5996 23.8115C18.8104 23.5207 18.416 23.0888 18.416 22.5176C18.4162 21.9984 18.7747 21.5673 19.4912 21.2246C20.4571 20.7572 21.5171 19.9163 22.6699 18.7012C24.2798 17.0186 25.2348 16.0521 25.5361 15.8027C25.8476 15.5432 26.1592 15.4132 26.4707 15.4131ZM79.9795 0C80.63 2.46869e-05 81.0426 0.225412 81.2178 0.675781C81.3929 1.12605 81.4683 1.66375 81.4434 2.28906C81.4183 2.91459 81.3559 3.56564 81.2559 4.24121C81.1558 4.89173 81.1427 5.4422 81.2178 5.89258C81.3929 9.1204 81.4311 12.2608 81.3311 15.3135C81.256 18.3661 81.2057 21.5187 81.1807 24.7715C81.1807 25.1467 81.0679 25.4971 80.8428 25.8223C80.6426 26.1225 80.3548 26.2724 79.9795 26.2725C79.6042 26.2725 79.3033 26.2604 79.0781 26.2354H78.4785C78.3035 26.2103 78.103 26.1983 77.8779 26.1982C77.6778 26.1732 77.3898 26.1602 77.0146 26.1602C76.4642 26.1602 76.0889 25.9226 75.8887 25.4473C75.7135 24.9719 75.6129 24.4084 75.5879 23.7578C75.5879 23.0824 75.6131 22.4069 75.6631 21.7314C75.7381 21.0311 75.7381 20.4683 75.6631 20.043C75.6631 19.4424 75.651 18.9786 75.626 18.6533V17.6777C75.626 17.3775 75.6129 17.0645 75.5879 16.7393V10.6221C75.6129 9.87152 75.6381 9.12067 75.6631 8.37012C75.7131 7.59444 75.7504 6.76834 75.7754 5.89258C75.8254 5.01683 75.8254 4.26616 75.7754 3.64062C75.7253 2.99009 75.6881 2.45172 75.6631 2.02637C75.6381 1.57617 75.6502 1.22573 75.7002 0.975586C75.7753 0.700415 75.9635 0.487998 76.2637 0.337891C76.5639 0.187773 77.0017 0.100225 77.5771 0.0751953C78.1777 0.0251508 78.9786 0 79.9795 0ZM47.5459 14.3643C46.9704 14.3643 46.4693 14.489 46.0439 14.7393C45.6438 14.9645 45.394 15.4527 45.2939 16.2031C45.2939 16.5284 45.2809 16.8787 45.2559 17.2539C45.2559 17.6292 45.3062 17.9794 45.4062 18.3047C45.5063 18.6049 45.6564 18.8676 45.8564 19.0928C46.0816 19.2929 46.4197 19.3936 46.8701 19.3936C47.4956 19.3185 48.1839 19.3306 48.9346 19.4307C49.685 19.5307 50.423 19.581 51.1484 19.5811C51.9491 19.5811 52.6374 19.418 53.2129 19.0928C53.8134 18.7675 54.1636 18.0792 54.2637 17.0283C54.2636 16.528 54.1761 16.1273 54.001 15.8271C53.8509 15.5022 53.6383 15.2522 53.3633 15.0771C53.088 14.877 52.7751 14.7512 52.4248 14.7012C52.0996 14.6261 51.7614 14.5889 51.4111 14.5889C50.8357 14.6889 50.1976 14.6768 49.4971 14.5518C48.8217 14.4267 48.1713 14.3643 47.5459 14.3643ZM15.6533 6.46191C23.3195 6.46194 28.3586 8.61828 30.7715 12.9307C31.0056 13.3476 31.123 13.7086 31.123 14.0137C31.123 14.3594 30.9957 14.6643 30.7412 14.9287C30.4969 15.1931 30.2069 15.3251 29.8711 15.3252C29.413 15.3252 28.9498 15.0303 28.4814 14.4404C28.1149 13.9726 27.7483 13.4995 27.3818 13.0215C24.969 10.6823 21.1765 9.51277 16.0049 9.5127C13.9994 9.5127 11.9576 9.79224 9.88086 10.3516C7.49852 11.0025 5.66561 11.888 4.38281 13.0068C3.91454 13.4746 3.44581 13.9369 2.97754 14.3945C2.29542 15.0251 1.77625 15.3408 1.41992 15.3408C1.05354 15.3407 0.727367 15.2087 0.442383 14.9443C0.147353 14.6699 0.000103062 14.3493 0 13.9834C2.78938e-09 13.7495 0.142707 13.4238 0.427734 13.0068C1.84288 10.993 4.12363 9.36584 7.26953 8.125C10.0998 7.01643 12.8944 6.46191 15.6533 6.46191Z" fill="white"/>
</svg>
