<svg width="32" height="31" viewBox="0 0 32 31" fill="none" xmlns="http://www.w3.org/2000/svg">
<path d="M29.7031 22.1211C30.0696 22.1211 30.3956 22.2532 30.6807 22.5176C30.9759 22.7922 31.123 23.1133 31.123 23.4795C31.1229 23.7134 30.9802 24.0383 30.6953 24.4551C29.2802 26.4689 27.0003 28.0971 23.8545 29.3379C21.0242 30.4465 18.2288 31 15.4697 31C7.80392 30.9999 2.76447 28.8443 0.351562 24.5322C0.117401 24.1152 -1.33374e-08 23.7534 0 23.4482C0.000101261 23.1026 0.127446 22.7975 0.381836 22.5332C0.626178 22.2688 0.916959 22.1367 1.25293 22.1367C1.71093 22.1369 2.17441 22.4318 2.64258 23.0215C3.00904 23.4893 3.37572 23.9625 3.74219 24.4404C6.15508 26.7795 9.94745 27.9492 15.1191 27.9492C17.1247 27.9492 19.1663 27.6697 21.2432 27.1104C23.6253 26.4594 25.4575 25.5738 26.7402 24.4551C27.2085 23.9873 27.6772 23.525 28.1455 23.0674C28.8276 22.4368 29.3468 22.1211 29.7031 22.1211ZM5.94336 8.41602C6.32755 8.41612 6.67578 8.59323 6.9873 8.94629C9.35547 11.5949 11.5003 13.4179 13.4219 14.415C14.0344 14.7266 14.3406 15.1263 14.3408 15.6143C14.3408 15.9881 14.1489 16.3572 13.7646 16.7207C11.2926 19.0162 8.70121 21.032 5.99023 22.7666C5.69943 22.9535 5.42372 23.0469 5.16406 23.0469C4.79016 23.0469 4.46305 22.9011 4.18262 22.6104C3.91255 22.3091 3.77734 21.9716 3.77734 21.5977C3.77735 21.1822 3.97969 20.8184 4.38477 20.5068L10.4307 15.8955C9.50628 15.2827 8.3635 14.3423 7.00293 13.0752C5.34099 11.5067 4.50977 10.4208 4.50977 9.81836C4.50984 9.44455 4.65553 9.11729 4.94629 8.83691C5.23705 8.55666 5.56956 8.41602 5.94336 8.41602ZM26.4707 9.41309C26.8446 9.41309 27.1727 9.55877 27.4531 9.84961C27.7438 10.13 27.8887 10.4625 27.8887 10.8467C27.8887 11.1998 27.7333 11.5322 27.4219 11.8438C26.4247 12.9032 24.8713 14.4148 22.7627 16.3779C23.3444 16.8038 24.0614 17.4632 24.9131 18.3564C25.9206 19.4055 26.6114 20.0911 26.9854 20.4131C27.3593 20.7351 27.5459 21.0884 27.5459 21.4727C27.5459 21.8569 27.4062 22.1946 27.126 22.4854C26.8455 22.7762 26.5175 22.9219 26.1436 22.9219C25.8529 22.9218 25.5621 22.8127 25.2715 22.5947C24.856 22.2935 23.9681 21.4308 22.6074 20.0078C21.5687 18.9172 20.5656 18.1855 19.5996 17.8115C18.8104 17.5207 18.416 17.0888 18.416 16.5176C18.4162 15.9984 18.7747 15.5673 19.4912 15.2246C20.4571 14.7572 21.5171 13.9163 22.6699 12.7012C24.2798 11.0186 25.2348 10.0521 25.5361 9.80273C25.8476 9.54317 26.1592 9.4132 26.4707 9.41309ZM15.6533 0.461914C23.3195 0.461944 28.3586 2.61828 30.7715 6.93066C31.0056 7.34762 31.123 7.70857 31.123 8.01367C31.123 8.35939 30.9957 8.66432 30.7412 8.92871C30.4969 9.19308 30.2069 9.32512 29.8711 9.3252C29.413 9.3252 28.9498 9.03034 28.4814 8.44043C28.1149 7.97258 27.7483 7.49951 27.3818 7.02148C24.969 4.68232 21.1765 3.51277 16.0049 3.5127C13.9994 3.5127 11.9576 3.79224 9.88086 4.35156C7.49852 5.00249 5.66561 5.88805 4.38281 7.00684C3.91454 7.47464 3.44581 7.9369 2.97754 8.39453C2.29542 9.02512 1.77625 9.34082 1.41992 9.34082C1.05354 9.34074 0.727367 9.2087 0.442383 8.94434C0.147353 8.66986 0.000103062 8.34932 0 7.9834C2.78938e-09 7.74949 0.142707 7.4238 0.427734 7.00684C1.84288 4.99302 4.12363 3.36584 7.26953 2.125C10.0998 1.01643 12.8944 0.461914 15.6533 0.461914Z" fill="white"/>
</svg>
